<?xml version="1.0" encoding="iso-8859-1"?>
<!-- Uploaded to: SVG Repo, www.svgrepo.com, Generator: SVG Repo Mixer Tools -->
<svg height="800px" width="800px" version="1.1" id="Layer_1" xmlns="http://www.w3.org/2000/svg" xmlns:xlink="http://www.w3.org/1999/xlink" 
	 viewBox="0 0 512 512" xml:space="preserve">
<path style="fill:#FFDB2D;" d="M494.933,488.107H155.876c-9.425,0-17.067-7.641-17.067-17.067V131.982
	c0-9.425,7.641-17.067,17.067-17.067h339.058c9.425,0,17.067,7.641,17.067,17.067V471.04
	C512,480.465,504.359,488.107,494.933,488.107z"/>
<path style="fill:#FF9900;" d="M494.933,114.916H256v373.191h238.933c9.425,0,17.067-7.641,17.067-17.067V131.982
	C512,122.557,504.359,114.916,494.933,114.916z"/>
<path style="fill:#B9F7F9;" d="M172.942,488.107H17.067C7.641,488.107,0,480.465,0,471.04V131.982
	c0-9.425,7.641-17.067,17.067-17.067h155.876V488.107z"/>
<path style="fill:#A7A9AC;" d="M512,149.049H0V40.96c0-9.425,7.641-17.067,17.067-17.067h477.867
	c9.425,0,17.067,7.641,17.067,17.067V149.049z"/>
<g>
	<circle style="fill:#FFDB2D;" cx="64.853" cy="86.471" r="11.378"/>
	<circle style="fill:#FFDB2D;" cx="110.364" cy="86.471" r="11.378"/>
	<circle style="fill:#FFDB2D;" cx="155.876" cy="86.471" r="11.378"/>
</g>
<g>
	<path style="fill:#00D8E0;" d="M106.951,252.587h-40.96c-9.425,0-17.067-7.641-17.067-17.067c0-9.425,7.641-17.067,17.067-17.067
		h40.96c9.425,0,17.067,7.641,17.067,17.067C124.018,244.945,116.376,252.587,106.951,252.587z"/>
	<path style="fill:#00D8E0;" d="M106.951,335.644h-40.96c-9.425,0-17.067-7.641-17.067-17.067s7.641-17.067,17.067-17.067h40.96
		c9.425,0,17.067,7.641,17.067,17.067S116.376,335.644,106.951,335.644z"/>
	<path style="fill:#00D8E0;" d="M106.951,418.702h-40.96c-9.425,0-17.067-7.641-17.067-17.067s7.641-17.067,17.067-17.067h40.96
		c9.425,0,17.067,7.641,17.067,17.067S116.376,418.702,106.951,418.702z"/>
</g>
<path style="fill:#808285;" d="M512,40.96c0-9.425-7.641-17.067-17.067-17.067H256v125.156h256V40.96z"/>
<path style="fill:#00D8E0;" d="M387.982,426.667H296.96c-9.425,0-17.067-7.641-17.067-17.067v-45.511
	c0-34.505,28.072-62.578,62.578-62.578s62.578,28.072,62.578,62.578V409.6C405.049,419.025,397.408,426.667,387.982,426.667z"/>
<path style="fill:#B9F7F9;" d="M342.471,335.644c-34.505,0-62.578-28.072-62.578-62.578s28.072-62.578,62.578-62.578
	s62.578,28.072,62.578,62.578S376.977,335.644,342.471,335.644z"/>
</svg>